<svg xmlns="http://www.w3.org/2000/svg" viewBox="0 0 512 512">
  <rect width="512" height="512" rx="80" fill="#0e0c1a"/>
  <rect x="12" y="12" width="488" height="488" rx="72" fill="none" stroke="#8a6fd4" stroke-width="8"/>
  <!-- Books stack -->
  <rect x="110" y="200" width="65" height="185" rx="5" fill="#2a1e3a"/>
  <rect x="110" y="200" width="11" height="185" rx="3" fill="#8a6fd4" opacity="0.9"/>
  <rect x="195" y="170" width="75" height="215" rx="5" fill="#231830"/>
  <rect x="195" y="170" width="13" height="215" rx="3" fill="#a87fd4"/>
  <rect x="290" y="185" width="70" height="200" rx="5" fill="#1e1830"/>
  <rect x="290" y="185" width="11" height="200" rx="3" fill="#8a6fd4" opacity="0.8"/>
  <rect x="375" y="210" width="45" height="175" rx="5" fill="#2a1e3a"/>
  <rect x="375" y="210" width="9" height="175" rx="3" fill="#8a6fd4" opacity="0.7"/>
  <!-- Shelf -->
  <rect x="90" y="387" width="332" height="10" rx="4" fill="#8a6fd4" opacity="0.6"/>
  <!-- AI brain/circuit symbol above -->
  <circle cx="256" cy="110" r="55" fill="none" stroke="#8a6fd4" stroke-width="3" opacity="0.8"/>
  <circle cx="256" cy="110" r="35" fill="none" stroke="#a87fd4" stroke-width="2" opacity="0.6"/>
  <!-- Circuit nodes -->
  <circle cx="256" cy="110" r="6" fill="#c9a84c"/>
  <circle cx="226" cy="90" r="4" fill="#8a6fd4"/>
  <circle cx="286" cy="90" r="4" fill="#8a6fd4"/>
  <circle cx="226" cy="130" r="4" fill="#8a6fd4"/>
  <circle cx="286" cy="130" r="4" fill="#8a6fd4"/>
  <circle cx="210" cy="110" r="4" fill="#a87fd4"/>
  <circle cx="302" cy="110" r="4" fill="#a87fd4"/>
  <!-- Circuit lines -->
  <line x1="256" y1="104" x2="256" y2="92" stroke="#c9a84c" stroke-width="2"/>
  <line x1="250" y1="110" x2="230" y2="110" stroke="#c9a84c" stroke-width="2"/>
  <line x1="262" y1="110" x2="282" y2="110" stroke="#c9a84c" stroke-width="2"/>
  <line x1="256" y1="116" x2="256" y2="128" stroke="#c9a84c" stroke-width="2"/>
  <line x1="230" y1="110" x2="214" y2="110" stroke="#8a6fd4" stroke-width="1.5"/>
  <line x1="282" y1="110" x2="298" y2="110" stroke="#8a6fd4" stroke-width="1.5"/>
  <line x1="229" y1="93" x2="229" y2="74" stroke="#8a6fd4" stroke-width="1.5"/>
  <line x1="283" y1="93" x2="283" y2="74" stroke="#8a6fd4" stroke-width="1.5"/>
  <!-- Title -->
  <text x="256" y="450" text-anchor="middle" font-family="Georgia,serif" font-size="30" font-weight="bold" fill="#a87fd4" letter-spacing="2">BIBLIOTHEK</text>
  <text x="256" y="480" text-anchor="middle" font-family="Georgia,serif" font-size="19" fill="#8a6fd4" letter-spacing="3">KI-EDITION</text>
</svg>
